<svg width="16" height="16" viewBox="0 0 16 16" fill="none" xmlns="http://www.w3.org/2000/svg">
<rect x="0.5" y="0.5" width="9" height="13" fill="white" stroke="#828282"/>
<line x1="2" y1="8.5" x2="6" y2="8.5" stroke="#464646"/>
<line x1="2" y1="6.5" x2="7" y2="6.5" stroke="#464646"/>
<line x1="2" y1="10.5" x2="7" y2="10.5" stroke="#464646"/>
<line x1="2" y1="2.5" x2="8" y2="2.5" stroke="#464646"/>
<line x1="2" y1="4.5" x2="6" y2="4.5" stroke="#464646"/>
<rect x="6.5" y="2.5" width="9" height="13" fill="white" stroke="#828282"/>
<path d="M10 10.6016V10.4687C10.0026 10.013 10.043 9.64974 10.1211 9.37891C10.2018 9.10807 10.319 8.88932 10.4727 8.72266C10.6263 8.55599 10.8112 8.40495 11.0273 8.26953C11.1888 8.16536 11.3333 8.05729 11.4609 7.94531C11.5885 7.83333 11.6901 7.70964 11.7656 7.57422C11.8411 7.4362 11.8789 7.28255 11.8789 7.11328C11.8789 6.93359 11.8359 6.77604 11.75 6.64062C11.6641 6.50521 11.5482 6.40104 11.4023 6.32812C11.2591 6.25521 11.1003 6.21875 10.9258 6.21875C10.7565 6.21875 10.5964 6.25651 10.4453 6.33203C10.2943 6.40495 10.1706 6.51432 10.0742 6.66016C9.97786 6.80339 9.92578 6.98177 9.91797 7.19531H8.32422C8.33724 6.67448 8.46224 6.24479 8.69922 5.90625C8.9362 5.5651 9.25 5.3112 9.64062 5.14453C10.0312 4.97526 10.4622 4.89062 10.9336 4.89062C11.4518 4.89062 11.9102 4.97656 12.3086 5.14844C12.707 5.31771 13.0195 5.5638 13.2461 5.88672C13.4727 6.20964 13.5859 6.59896 13.5859 7.05469C13.5859 7.35937 13.5352 7.63021 13.4336 7.86719C13.3346 8.10156 13.1953 8.3099 13.0156 8.49219C12.8359 8.67187 12.6237 8.83464 12.3789 8.98047C12.1732 9.10286 12.0039 9.23047 11.8711 9.36328C11.7409 9.49609 11.6432 9.64974 11.5781 9.82422C11.5156 9.9987 11.4831 10.2135 11.4805 10.4687V10.6016H10ZM10.7734 13.1016C10.513 13.1016 10.2904 13.0104 10.1055 12.8281C9.92318 12.6432 9.83333 12.4219 9.83594 12.1641C9.83333 11.9089 9.92318 11.6901 10.1055 11.5078C10.2904 11.3255 10.513 11.2344 10.7734 11.2344C11.0208 11.2344 11.2383 11.3255 11.4258 11.5078C11.6133 11.6901 11.7083 11.9089 11.7109 12.1641C11.7083 12.3359 11.6628 12.4935 11.5742 12.6367C11.4883 12.7773 11.375 12.8906 11.2344 12.9766C11.0938 13.0599 10.9401 13.1016 10.7734 13.1016Z" fill="#222222"/>
</svg>
